<?xml version="1.0" standalone="no"?>
<!DOCTYPE svg PUBLIC "-//W3C//DTD SVG 20010904//EN"
 "http://www.w3.org/TR/2001/REC-SVG-20010904/DTD/svg10.dtd">
<svg version="1.0" xmlns="http://www.w3.org/2000/svg"
 width="128.000000pt" height="128.000000pt" viewBox="0 0 128.000000 128.000000"
 preserveAspectRatio="xMidYMid meet">
<metadata>
Created by potrace 1.10, written by Peter Selinger 2001-2011
</metadata>
<g transform="translate(0.000000,128.000000) scale(0.100000,-0.100000)"
fill="#000000" stroke="none">
<path d="M258 1097 c-92 -26 -162 -94 -193 -187 -33 -101 -72 -502 -48 -487 6
4 13 24 17 44 7 52 25 180 31 228 6 52 11 82 19 125 4 19 8 42 10 50 3 14 5
21 22 65 4 11 6 24 5 30 -2 5 0 7 4 3 4 -3 22 9 41 27 51 49 109 72 174 69 30
-2 66 -3 80 -4 17 0 21 -3 12 -9 -27 -17 99 -41 214 -41 92 0 120 5 179 26 76
28 155 37 195 22 38 -14 131 -88 125 -99 -4 -5 -2 -9 2 -9 19 0 54 -135 68
-260 6 -49 22 -172 31 -233 4 -20 11 -40 17 -44 23 -14 -13 384 -44 487 -31
100 -123 183 -226 202 -65 12 -83 9 -198 -32 -84 -31 -265 -26 -340 9 -62 28
-136 35 -197 18z"/>
<path d="M326 949 c-31 -19 -56 -48 -56 -67 0 -23 -19 -42 -41 -42 -22 0 -71
-39 -64 -51 4 -5 1 -9 -5 -9 -7 0 -10 -15 -8 -37 2 -25 8 -37 16 -35 8 1 11
-2 7 -8 -8 -13 54 -50 74 -43 9 4 13 3 9 -2 -4 -4 -2 -17 4 -29 7 -11 13 -23
14 -26 5 -21 17 -39 24 -35 4 3 10 -2 14 -10 8 -23 72 -19 96 5 25 25 43 68
34 82 -4 7 -2 8 4 4 7 -4 12 -3 12 1 0 5 12 10 26 11 31 2 71 42 80 78 8 33
-36 91 -78 102 -22 5 -34 16 -38 32 -10 36 -61 90 -85 90 -11 0 -28 -5 -39
-11z m68 -45 c10 -9 16 -33 16 -60 l0 -44 44 0 c65 0 91 -33 66 -81 -8 -15
-22 -19 -60 -19 l-50 0 0 -43 c0 -74 -44 -104 -87 -61 -22 22 -24 31 -19 65
l6 39 -49 0 c-72 0 -98 31 -65 78 12 18 25 22 65 22 l50 0 -7 35 c-12 66 48
112 90 69z"/>
<path d="M977 948 c-33 -16 -68 -65 -59 -86 4 -11 2 -13 -8 -7 -10 6 -12 4 -6
-11 4 -10 9 -24 10 -31 1 -7 5 -16 9 -19 4 -4 7 -15 7 -24 0 -12 -8 -15 -34
-12 -28 3 -40 -2 -72 -32 -32 -31 -39 -43 -39 -77 0 -24 6 -44 15 -49 8 -5 11
-10 6 -10 -6 0 -1 -6 9 -14 11 -8 23 -12 28 -9 4 2 6 -1 5 -9 -2 -9 12 -14 45
-16 44 -3 50 0 83 35 33 35 35 41 29 82 -10 63 -15 76 -27 59 -8 -10 -9 -10
-5 2 3 10 15 14 36 12 23 -1 30 1 25 9 -5 8 -3 9 5 4 20 -12 60 15 78 52 44
93 -48 192 -140 151z m93 -48 c33 -33 30 -75 -6 -107 -31 -28 -54 -29 -88 -2
-52 41 -23 129 44 129 17 0 39 -9 50 -20z m-120 -200 c45 -45 11 -120 -54
-120 -37 0 -76 36 -76 70 0 10 9 29 21 44 26 33 79 36 109 6z"/>
<path d="M515 452 c-30 -7 -76 -42 -69 -53 3 -5 1 -8 -4 -7 -6 2 -34 -22 -64
-52 -29 -30 -73 -71 -97 -91 -39 -33 -48 -36 -85 -31 -39 5 -107 40 -121 62
-3 6 -11 7 -17 4 -6 -4 -8 -2 -5 4 9 13 -2 44 -13 37 -4 -3 -11 5 -15 18 -7
21 -8 21 -12 -6 -9 -57 62 -132 149 -159 67 -20 109 1 218 110 136 138 125
132 260 132 135 0 128 3 249 -122 84 -87 145 -128 192 -128 41 0 125 46 154
84 15 20 31 55 35 77 7 39 7 40 -13 22 -11 -10 -30 -34 -43 -54 -28 -45 -76
-75 -130 -82 -48 -6 -50 -4 -194 137 -63 62 -105 95 -125 98 -35 7 -221 7
-250 0z"/>
</g>
</svg>
